<svg xmlns="http://www.w3.org/2000/svg" width="917" height="902" viewBox="0 0 917 902" version="1.1"><path d="M 449 1.083 C 370.788 7.031, 295.366 33.461, 228 78.529 C 203.436 94.962, 184.439 110.299, 160.905 132.694 C 154.659 138.637, 150.362 142.223, 151.355 140.663 C 155.156 134.689, 151.953 137.376, 143.137 147.557 C 138.095 153.379, 134.191 158.501, 134.462 158.938 C 134.732 159.375, 133.951 160.580, 132.726 161.616 C 130.500 163.500, 130.500 163.500, 132.500 161 C 134.500 158.500, 134.500 158.500, 132.215 160.437 C 130.958 161.502, 130.144 162.932, 130.405 163.614 C 130.667 164.296, 130.120 165.449, 129.191 166.177 C 127.639 167.391, 127.622 167.336, 128.983 165.500 C 130.456 163.513, 130.451 163.513, 128.197 165.437 C 126.950 166.502, 126.165 167.988, 126.453 168.739 C 126.741 169.490, 126.544 169.836, 126.015 169.510 C 124.156 168.360, 99.736 203.217, 87.549 224.417 C 63.748 265.819, 43.669 320.403, 38.473 357.826 C 37.608 364.056, 35.604 375.306, 34.020 382.826 C 32.436 390.347, 30.852 400.094, 30.499 404.487 C 30.147 408.880, 29.440 414.679, 28.929 417.374 C 27.678 423.971, 27.822 425.085, 29.464 421.500 C 30.790 418.605, 30.841 418.745, 30.931 425.500 C 30.982 429.350, 30.272 437.846, 29.352 444.381 C 27.928 454.495, 27.848 458.159, 28.814 469.021 C 29.438 476.038, 30.674 483.915, 31.560 486.526 C 32.566 489.487, 32.929 492.564, 32.527 494.709 C 31.789 498.642, 33.786 521.359, 34.906 521.774 C 35.313 521.925, 35.512 523.500, 35.348 525.274 C 35.083 528.134, 35.140 528.216, 35.847 526 C 36.560 523.767, 36.721 523.989, 37.358 528.076 C 37.750 530.593, 37.814 533.321, 37.500 534.138 C 37.187 534.955, 37.816 539.421, 38.899 544.062 C 43.129 562.193, 57.716 609.827, 57.925 606.191 C 58.059 603.852, 59.725 605.873, 60.385 609.177 C 60.739 610.947, 63.431 617.594, 66.367 623.948 C 69.303 630.302, 71.995 636.698, 72.350 638.162 C 72.704 639.627, 75.034 644.275, 77.526 648.491 C 80.019 652.707, 84.125 660.284, 86.651 665.329 C 89.176 670.373, 93.100 677.046, 95.371 680.157 C 97.642 683.268, 101.653 689.568, 104.284 694.157 C 117.902 717.908, 155.957 763.106, 182.341 786.866 C 228.336 828.284, 280.173 859.006, 336.755 878.380 C 386.488 895.410, 435.795 902.911, 490 901.696 C 528.497 900.832, 555.485 897.175, 592.500 887.804 C 620.252 880.779, 657.441 866.928, 671.031 858.555 C 674.073 856.681, 679.698 853.971, 683.531 852.534 C 693.058 848.960, 705.606 841.714, 724 829.163 C 732.525 823.346, 743.775 815.734, 749 812.247 C 754.225 808.760, 760.975 803.541, 764 800.649 C 767.025 797.758, 773.457 791.868, 778.294 787.562 C 783.131 783.255, 788.491 777.654, 790.205 775.116 C 791.919 772.577, 798.107 765.550, 803.956 759.500 C 815.235 747.832, 823.737 737.178, 831.516 724.967 C 834.132 720.860, 838.209 715.475, 840.575 713 C 844.900 708.477, 866 677.628, 866 675.828 C 866 675.299, 865.100 675.151, 864 675.500 C 861.298 676.358, 861.459 675.019, 864.877 668.221 C 893.160 611.978, 910.702 536.886, 908.611 481 C 907.588 453.652, 906.493 452.124, 905.743 477 C 903.643 546.684, 884.859 617.389, 856.462 662.500 C 853.346 667.450, 849.317 674.425, 847.510 678 C 843.084 686.752, 829.886 706.510, 821.284 717.261 C 810.639 730.565, 792.246 750.503, 781.855 760 C 776.741 764.675, 768.032 772.786, 762.502 778.023 C 756.973 783.261, 747.242 791.458, 740.878 796.238 C 728.660 805.414, 705.155 820.489, 704.338 819.672 C 704.073 819.406, 708.276 816.271, 713.678 812.705 C 734.814 798.751, 753.418 783.573, 771.010 765.930 C 786.563 750.333, 792.556 742.475, 778.951 755.520 C 745.419 787.670, 723.321 804.421, 694.305 819.684 C 688.362 822.810, 681.771 826.826, 679.659 828.608 C 677.546 830.390, 672.821 833.412, 669.159 835.323 C 660.757 839.708, 633.984 850.318, 633.229 849.562 C 632.917 849.251, 635.551 847.767, 639.081 846.266 C 650.007 841.619, 668.746 832.220, 669.492 831.012 C 669.883 830.381, 668.019 830.970, 665.351 832.322 C 639.578 845.380, 591.832 861.253, 558.095 867.978 C 530.451 873.489, 519.245 874.509, 487.500 874.404 C 471.264 874.350, 456.519 873.848, 454 873.264 C 450.430 872.435, 454.564 872.194, 474 872.100 C 510.168 871.923, 547.742 868.822, 556 865.331 C 557.925 864.518, 567.548 861.847, 577.384 859.396 C 635.899 844.817, 690.283 819.366, 733 786.568 C 740.314 780.953, 758 766.022, 758 765.463 C 758 765.263, 753.113 769.014, 747.140 773.799 C 733.156 785.003, 716.252 797.119, 703 805.435 C 690.802 813.089, 673.088 822.422, 672.283 821.617 C 671.979 821.312, 673.160 820.261, 674.908 819.281 C 684.287 814.026, 710.516 797.446, 720.753 790.302 C 733.354 781.509, 751 766.650, 751 764.834 C 751 764.225, 748.862 765.716, 746.250 768.147 C 735.560 778.096, 712.736 794.005, 691.930 806.011 C 668.328 819.630, 628.709 837.870, 625.448 836.618 C 623.560 835.894, 613.815 838.882, 612.535 840.577 C 610.781 842.903, 569.506 852.969, 543.261 857.472 C 516.757 862.020, 479.275 863.448, 465.500 860.434 C 461.650 859.591, 450.850 858.508, 441.500 858.027 C 418.802 856.858, 401.807 853.480, 375 844.808 C 344.111 834.816, 297.149 814.547, 281.050 804.259 C 273.799 799.625, 242.437 775.709, 225.138 761.620 C 207.588 747.329, 179.250 719.013, 166.304 702.834 C 121.359 646.665, 92.483 576.050, 82.339 497.500 C 79.741 477.382, 79.732 424.398, 82.323 404.500 C 92.725 324.638, 121.753 256.195, 171.238 194.852 C 174.943 190.258, 179.934 184.025, 182.329 181 C 184.724 177.975, 187.342 175.612, 188.147 175.749 C 188.951 175.886, 191.155 174.404, 193.043 172.455 C 195.861 169.548, 196.213 168.750, 195.005 168.003 C 193.846 167.287, 195.983 164.673, 205.016 155.751 C 260.828 100.629, 339.326 61.227, 419.500 48.090 C 431.202 46.172, 444.339 44.748, 462.418 43.439 C 468.620 42.989, 472.580 42.139, 475.418 40.646 C 479.064 38.729, 480.835 38.529, 492 38.775 C 498.875 38.926, 505.794 39.312, 507.375 39.632 C 509.549 40.072, 510.058 39.902, 509.461 38.937 C 508.893 38.017, 509.160 37.847, 510.418 38.330 C 511.378 38.699, 514.178 39, 516.641 39 C 519.212 39, 520.868 39.404, 520.531 39.949 C 519.899 40.972, 522.784 41.562, 533 42.503 C 536.575 42.832, 546.086 44.204, 554.136 45.551 C 568.162 47.898, 575.896 48.627, 569.500 47 C 566.514 46.240, 566.518 46.236, 570.250 46.118 C 572.313 46.053, 574 45.514, 574 44.921 C 574 43.413, 578.062 44.373, 594.331 49.729 C 604.099 52.945, 607.770 54.560, 606.831 55.228 C 605.894 55.894, 606.195 56.020, 607.849 55.654 C 609.141 55.369, 609.930 55.403, 609.603 55.730 C 609.276 56.057, 610.807 57.129, 613.004 58.113 C 620.335 61.395, 617.124 60.905, 605.324 56.941 C 598.902 54.784, 593.486 53.180, 593.288 53.379 C 593.090 53.577, 598.457 55.630, 605.214 57.941 C 611.971 60.252, 625.958 65.500, 636.296 69.602 C 646.633 73.705, 655.464 76.831, 655.921 76.549 C 656.377 76.267, 658.848 76.751, 661.413 77.625 C 663.977 78.499, 666.959 78.983, 668.039 78.700 C 669.283 78.375, 669.759 78.581, 669.337 79.263 C 668.912 79.951, 669.292 80.102, 670.388 79.681 C 671.332 79.319, 671.858 79.421, 671.558 79.907 C 671.257 80.393, 671.707 81.057, 672.558 81.384 C 673.520 81.753, 673.850 81.566, 673.431 80.889 C 672.968 80.140, 673.420 80.154, 674.879 80.935 C 677.101 82.124, 677.921 83.585, 675.750 82.485 C 675.063 82.137, 675.387 82.570, 676.471 83.448 C 677.556 84.326, 679.041 84.814, 679.773 84.534 C 680.505 84.253, 680.880 84.385, 680.606 84.828 C 680.333 85.271, 681.501 86.455, 683.202 87.460 C 685.093 88.578, 685.980 88.777, 685.484 87.974 C 684.225 85.937, 686.609 87.126, 699.676 95.053 C 751.167 126.287, 795.609 168.703, 827.310 216.868 C 836.942 231.504, 837.549 232.324, 834.433 226.500 C 830.242 218.667, 815.880 197.292, 808.604 188.056 C 804.970 183.444, 802.222 179.444, 802.498 179.168 C 802.774 178.892, 803.142 178.854, 803.316 179.083 C 803.489 179.313, 806.351 182.875, 809.676 187 C 813 191.125, 819.608 199.827, 824.360 206.337 C 829.112 212.847, 833.002 217.797, 833.004 217.337 C 833.008 216.383, 835.014 219.630, 840.257 229.079 C 843.523 234.967, 843.701 235.644, 841.949 235.515 C 840.872 235.435, 839.293 234.500, 838.439 233.435 C 837.586 232.371, 839.393 236.498, 842.455 242.606 C 845.518 248.714, 848.937 254.538, 850.055 255.550 C 852.032 257.339, 852.067 257.336, 851.375 255.444 C 850.983 254.375, 849.289 251.475, 847.610 249 C 845.894 246.470, 844.510 243.077, 844.449 241.250 C 844.389 239.462, 844.520 238, 844.741 238 C 845.571 238, 860.952 270.968, 865.269 282 C 871.146 297.019, 878.901 319.661, 882.981 333.711 C 884.771 339.876, 886.709 344.826, 887.287 344.711 C 888.585 344.451, 891.077 354.812, 894.452 374.500 C 898.050 395.485, 899.954 414.961, 900.123 432.500 C 900.231 443.693, 900.465 446.231, 901.046 442.500 C 902.190 435.156, 902.145 414.179, 900.956 401 C 897.436 361.956, 885.582 314.706, 869.391 275.191 C 862.111 257.423, 858.498 250.339, 854.372 245.747 C 852.517 243.683, 851 241.195, 851 240.219 C 851 233.169, 827.588 197.567, 805.591 171.164 C 776.687 136.472, 734.011 99.692, 696.241 76.920 C 611.897 26.069, 501.689 7.832, 395.788 27.202 C 385.892 29.012, 382.721 30.074, 376.238 33.750 C 371.982 36.164, 369.625 37.860, 371 37.520 C 372.375 37.180, 380.025 35.486, 388 33.756 C 395.975 32.026, 402.712 30.449, 402.971 30.251 C 403.230 30.053, 402.780 29.473, 401.971 28.961 C 400.905 28.287, 401.498 28.026, 404.125 28.015 C 406.119 28.007, 409.269 27.743, 411.125 27.428 C 414.375 26.878, 414.426 26.917, 412.500 28.501 C 410.284 30.323, 409.676 30.347, 422.268 28.102 C 426.262 27.390, 426.851 27.475, 425.896 28.626 C 425.268 29.382, 423.271 30, 421.457 30 C 415.821 30, 389.153 34.851, 375 38.451 C 321.052 52.173, 263.192 81.815, 216.955 119.418 C 201.206 132.228, 183.590 147.223, 178.275 152.346 C 175.401 155.116, 172.799 157.132, 172.492 156.826 C 171.342 155.675, 208.509 121.411, 230.599 103.257 C 233.404 100.952, 238.354 97.693, 241.599 96.015 C 244.845 94.337, 252.450 89.424, 258.500 85.098 C 264.550 80.771, 271.525 76.547, 274 75.710 C 276.475 74.873, 281.875 72.271, 286 69.929 C 298.739 62.695, 318.969 54.070, 343.250 45.521 C 349.163 43.439, 354 41.360, 354 40.900 C 354 40.440, 355.238 39.393, 356.750 38.572 C 363.104 35.125, 352.375 38.159, 334 45.005 C 322.079 49.447, 319.170 50.978, 322.550 51.030 C 324.476 51.060, 324.477 51.074, 322.562 52.185 C 321.496 52.804, 319.126 53.254, 317.296 53.185 C 313.686 53.049, 294.428 61.423, 278.098 70.230 C 267.217 76.098, 266.579 75.260, 277.147 68.982 C 313.153 47.591, 363.921 29.040, 408.305 21.056 C 434.598 16.326, 444.047 15.601, 480 15.549 C 523.425 15.487, 542.733 17.440, 579.403 25.602 C 616.821 33.930, 644.283 43.871, 685 63.826 C 723.423 82.657, 747.536 100.106, 783.670 135.227 C 791.464 142.802, 798.460 149, 799.217 149 C 799.975 149, 802.373 150.826, 804.547 153.059 C 806.923 155.498, 807.737 156.827, 806.586 156.389 C 805.109 155.827, 804.858 155.985, 805.488 157.080 C 807.197 160.053, 809.233 161.848, 810.392 161.403 C 811.054 161.149, 812.699 162.151, 814.048 163.631 C 815.948 165.715, 816.097 166.175, 814.711 165.676 C 813.727 165.322, 815.945 168.056, 819.641 171.752 C 833.191 185.302, 848.609 206.700, 861.973 230.500 C 867.832 240.936, 882.129 269.728, 884.955 276.782 C 886.515 280.678, 887.517 280.491, 886.031 276.582 C 885.448 275.048, 885.409 274.135, 885.940 274.463 C 888.439 276.007, 900.188 310.100, 907.148 336 C 909.432 344.500, 909.432 344.500, 910.125 340 C 910.854 335.268, 910.044 330.707, 907.343 324.334 C 906.450 322.225, 905.587 319.133, 905.426 317.462 C 905.068 313.745, 899.618 298.592, 897.446 295.278 C 896.577 293.951, 895.019 289.634, 893.984 285.683 C 890.313 271.672, 882.699 255.009, 866.354 225.214 C 855.734 205.855, 848.975 194.935, 838.905 180.867 C 798.983 125.098, 738.479 74.582, 677.114 45.785 C 671.402 43.105, 664.877 39.418, 662.614 37.593 C 660.352 35.768, 653.550 32.354, 647.500 30.006 C 607.032 14.304, 562.653 4.446, 517 1.018 C 501.604 -0.137, 464.589 -0.102, 449 1.083 M 457.500 317.659 C 442.330 320.065, 421.890 328.713, 410 337.755 C 360.146 375.667, 355.266 449.486, 399.715 493.323 C 434.895 528.019, 488.711 533.412, 529.692 506.349 C 537.411 501.251, 551.208 487.958, 556.520 480.500 C 569.993 461.587, 577.053 437.234, 575.660 414.479 C 572.877 368.992, 541.991 331.503, 497.709 319.864 C 491.484 318.228, 485.996 317.643, 475 317.445 C 467.025 317.300, 459.150 317.397, 457.500 317.659 M 461.058 321.122 C 421.034 325.759, 388.206 353.807, 376.347 393.500 C 373.907 401.665, 373.650 404.078, 373.579 419.500 C 373.485 439.711, 375.125 447.409, 382.952 463.500 C 397.187 492.765, 424.090 513.005, 455.926 518.402 C 467.885 520.429, 477.171 520.424, 489.074 518.384 C 510.824 514.657, 529.189 504.920, 544.212 489.152 C 556.361 476.402, 564.579 461.867, 569.176 445 C 571.192 437.602, 571.483 434.297, 571.424 419.500 C 571.362 404.044, 571.111 401.683, 568.660 393.500 C 556.564 353.116, 523.986 325.677, 482.666 321.069 C 472.080 319.889, 471.692 319.890, 461.058 321.122 M 912.117 343.808 C 911.910 347.886, 914.172 360.419, 915.581 363 C 916.946 365.500, 916.946 365.500, 916.375 362.384 C 914.195 350.493, 912.216 341.857, 912.117 343.808 M 432 402.037 C 419.763 404.592, 410 412.467, 410 419.782 C 410 430.628, 422.343 438.300, 440 438.430 C 448.941 438.496, 449.863 438.303, 455.664 435.157 C 459.054 433.318, 464.225 429.666, 467.155 427.042 C 472.483 422.270, 472.483 422.270, 477.849 427.053 C 480.801 429.684, 485.979 433.336, 489.358 435.168 C 495.135 438.302, 496.065 438.496, 505 438.430 C 522.657 438.300, 535 430.628, 535 419.782 C 535 408.634, 513.968 398.581, 497.707 401.957 C 491.355 403.276, 482.457 408.700, 476.585 414.833 C 472.671 418.921, 472.671 418.921, 466.424 413.077 C 462.988 409.863, 457.752 406.047, 454.790 404.598 C 448.677 401.607, 439.173 400.540, 432 402.037 M 434.166 407.473 C 412.212 412.450, 411.517 427.177, 432.980 432.597 C 446.598 436.036, 458.721 432.990, 467.598 423.900 C 471.399 420.007, 471.399 420.007, 468.073 416.575 C 459.682 407.918, 447.099 404.540, 434.166 407.473 M 493.438 406.938 C 488.719 408.067, 480.536 412.852, 476.890 416.614 C 473.601 420.007, 473.601 420.007, 477.402 423.900 C 486.279 432.990, 498.402 436.036, 512.020 432.597 C 533.737 427.113, 532.755 412.233, 510.364 407.489 C 502.989 405.926, 498.301 405.774, 493.438 406.938 M 163.750 545.674 C 165.937 547.200, 166 547.733, 166 564.590 C 166 581.936, 166 581.936, 163.250 583.428 C 160.630 584.850, 160.901 584.920, 169 584.928 C 176.688 584.936, 177.314 584.796, 175.559 583.468 C 174.491 582.661, 173.254 582, 172.809 582 C 172.364 582, 172 574.139, 172 564.532 C 172 547.064, 172 547.064, 174.750 545.572 C 177.380 544.145, 177.151 544.081, 169.500 544.092 C 161.941 544.104, 161.624 544.191, 163.750 545.674 M 187.250 545.572 C 190 547.064, 190 547.064, 190 564.532 C 190 574.139, 189.636 582, 189.191 582 C 188.746 582, 187.509 582.661, 186.441 583.468 C 184.686 584.796, 185.313 584.935, 193 584.924 C 201.500 584.912, 201.500 584.912, 197.750 582.932 C 194 580.952, 194 580.952, 194 567.476 C 194 560.064, 194.351 554, 194.779 554 C 195.208 554, 201.085 560.975, 207.840 569.500 C 214.595 578.025, 220.769 585, 221.561 585 C 222.762 585, 223 581.883, 223 566.122 C 223 547.676, 223.052 547.208, 225.250 545.674 C 227.374 544.192, 227.054 544.107, 219.500 544.134 C 211.718 544.162, 211.588 544.202, 214.750 545.584 C 218 547.006, 218 547.006, 217.968 560.253 C 217.943 570.849, 217.693 573.191, 216.718 571.955 C 192.684 541.471, 195.138 543.996, 189.586 544.040 C 184.508 544.080, 184.505 544.083, 187.250 545.572 M 237.250 545.572 C 240 547.064, 240 547.064, 240 564.500 C 240 581.936, 240 581.936, 237.250 583.428 C 234.642 584.843, 234.966 584.919, 243.500 584.896 C 252.470 584.872, 252.489 584.867, 249.250 583.255 C 246 581.637, 246 581.637, 246 573.319 C 246 565, 246 565, 250.712 565 C 254.641 565, 255.800 565.458, 257.676 567.750 C 259.928 570.500, 259.928 570.500, 259.932 563.500 C 259.937 556.500, 259.937 556.500, 257.885 559.250 C 256.132 561.599, 255.116 562, 250.917 562 C 246 562, 246 562, 246 554.500 C 246 547, 246 547, 253.379 547 C 260.646 547, 260.776 547.046, 262.009 550.021 C 264.001 554.830, 265 554.509, 265 549.059 C 265 544, 265 544, 249.750 544.040 C 235.657 544.077, 234.709 544.193, 237.250 545.572 M 276.250 545.572 C 279 547.064, 279 547.064, 279 564.371 C 279 581.679, 279 581.679, 276.250 583.073 C 273.500 584.466, 273.500 584.466, 277.750 584.791 C 280.088 584.969, 283.913 584.969, 286.250 584.791 C 290.500 584.466, 290.500 584.466, 287.750 583.073 C 285 581.679, 285 581.679, 285 564.371 C 285 547.064, 285 547.064, 287.750 545.572 C 290.370 544.151, 290.097 544.080, 282 544.080 C 273.903 544.080, 273.630 544.151, 276.250 545.572 M 299.441 545.532 C 300.509 546.339, 301.746 547, 302.191 547 C 302.636 547, 303 554.803, 303 564.339 C 303 581.679, 303 581.679, 300.250 583.073 C 297.500 584.466, 297.500 584.466, 301.776 584.792 C 304.128 584.971, 307.728 584.954, 309.776 584.753 C 313.500 584.389, 313.500 584.389, 310.250 583.097 C 307 581.804, 307 581.804, 307.022 567.152 C 307.044 553.088, 307.114 552.588, 308.772 554.694 C 309.723 555.900, 315.450 563.198, 321.500 570.910 C 327.550 578.622, 333.063 584.947, 333.750 584.966 C 334.707 584.992, 335 580.551, 335 566 C 335 555.550, 335.364 547, 335.809 547 C 336.254 547, 337.491 546.339, 338.559 545.532 C 340.317 544.202, 339.745 544.067, 332.500 544.096 C 324.500 544.128, 324.500 544.128, 327.750 545.745 C 331 547.363, 331 547.363, 331 560.240 C 331 567.323, 330.663 572.902, 330.250 572.639 C 329.837 572.375, 324.550 565.840, 318.500 558.116 C 307.500 544.073, 307.500 544.073, 302.500 544.068 C 297.889 544.064, 297.651 544.178, 299.441 545.532 M 350.250 545.572 C 353 547.064, 353 547.064, 353 564.371 C 353 581.679, 353 581.679, 350.250 583.073 C 347.500 584.466, 347.500 584.466, 351.750 584.791 C 354.088 584.969, 357.913 584.969, 360.250 584.791 C 364.500 584.466, 364.500 584.466, 361.750 583.073 C 359 581.679, 359 581.679, 359 564.371 C 359 547.064, 359 547.064, 361.750 545.572 C 364.370 544.151, 364.097 544.080, 356 544.080 C 347.903 544.080, 347.630 544.151, 350.250 545.572 M 371 550 C 371 553.300, 371.337 555.998, 371.750 555.996 C 372.163 555.994, 373.332 553.969, 374.349 551.496 C 376.198 547, 376.198 547, 381.599 547 C 387 547, 387 547, 387 563.976 C 387 580.952, 387 580.952, 383.250 582.932 C 379.500 584.912, 379.500 584.912, 389 584.924 C 397.566 584.935, 398.309 584.792, 396.559 583.468 C 395.491 582.661, 394.029 582, 393.309 582 C 392.280 582, 392 578.253, 392 564.500 C 392 547, 392 547, 397.364 547 C 402.728 547, 402.728 547, 404.447 551.500 C 405.392 553.975, 406.578 556, 407.083 556 C 407.587 556, 408 553.300, 408 550 C 408 544, 408 544, 389.500 544 C 371 544, 371 544, 371 550 M 416.441 545.532 C 417.509 546.339, 418.746 547, 419.191 547 C 419.636 547, 420 554.612, 420 563.917 C 420 580.833, 420 580.833, 417.250 582.885 C 414.500 584.937, 414.500 584.937, 430.750 584.968 C 447 585, 447 585, 447 579.500 C 447 576.475, 446.618 574, 446.152 574 C 445.685 574, 444.596 575.800, 443.732 578 C 442.161 582, 442.161 582, 433.540 582 C 424.919 582, 424.919 582, 425.210 573.750 C 425.500 565.500, 425.500 565.500, 430.557 565.204 C 435.097 564.939, 435.752 565.169, 436.976 567.454 C 439.183 571.580, 440.002 570.428, 439.964 563.250 C 439.928 556.500, 439.928 556.500, 437.676 559.250 C 435.744 561.610, 434.686 562, 430.212 562 C 425 562, 425 562, 425 554.500 C 425 547, 425 547, 432.418 547 C 439.818 547, 439.842 547.009, 442 550.500 C 443.190 552.425, 444.351 554, 444.582 554 C 444.812 554, 445 551.750, 445 549 C 445 544, 445 544, 429.750 544.032 C 416.122 544.060, 414.707 544.220, 416.441 545.532 M 472.441 545.532 C 473.509 546.339, 474.746 547, 475.191 547 C 475.636 547, 476 554.875, 476 564.500 C 476 574.125, 475.636 582, 475.191 582 C 474.746 582, 473.509 582.661, 472.441 583.468 C 470.707 584.780, 472.183 584.940, 486.250 584.968 C 502 585, 502 585, 502 577.800 C 502 569.941, 501.256 569.833, 498.481 577.289 C 496.698 582.079, 496.698 582.079, 489.099 581.789 C 481.500 581.500, 481.500 581.500, 481.226 564.750 C 480.952 548, 480.952 548, 484.226 546.004 C 487.500 544.007, 487.500 544.007, 479 544.036 C 471.308 544.061, 470.685 544.203, 472.441 545.532 M 512.250 545.572 C 515 547.064, 515 547.064, 515 564.500 C 515 581.936, 515 581.936, 512.250 583.428 C 509.718 584.802, 510.827 584.923, 526.250 584.960 C 543 585, 543 585, 543 579.500 C 543 576.475, 542.618 574, 542.152 574 C 541.685 574, 540.492 575.800, 539.500 578 C 537.696 582, 537.696 582, 529.348 582 C 521 582, 521 582, 521 573.500 C 521 565, 521 565, 525.927 565 C 529.992 565, 531.199 565.438, 532.821 567.500 C 533.903 568.875, 535.061 570, 535.394 570 C 535.727 570, 536 567.075, 536 563.500 C 536 556.654, 535.076 555.343, 533.182 559.500 C 532.167 561.727, 531.441 562, 526.521 562 C 521 562, 521 562, 521 554.500 C 521 547, 521 547, 528.516 547 C 536.032 547, 536.032 547, 537.701 550.500 C 540.006 555.333, 541 554.881, 541 549 C 541 544, 541 544, 525.250 544.040 C 510.713 544.077, 509.712 544.195, 512.250 545.572 M 567.594 547.173 C 566.842 549.003, 563.452 557.250, 560.061 565.500 C 555.871 575.693, 553.031 581.219, 551.198 582.745 C 548.500 584.990, 548.500 584.990, 556 584.955 C 563.321 584.921, 563.432 584.883, 560.661 583.382 C 557.571 581.707, 557.554 580.704, 560.502 573.650 C 562.062 569.917, 562.062 569.917, 569.722 570.208 C 577.383 570.500, 577.383 570.500, 579.601 576 C 581.819 581.500, 581.819 581.500, 578.659 583.208 C 575.500 584.916, 575.500 584.916, 584 584.953 C 592.500 584.990, 592.500 584.990, 589.761 582.745 C 587.798 581.135, 584.944 575.405, 579.678 562.500 C 571.799 543.193, 570.111 541.052, 567.594 547.173 M 600.250 545.572 C 603 547.064, 603 547.064, 603 564.371 C 603 581.679, 603 581.679, 600.250 583.073 C 597.500 584.466, 597.500 584.466, 601.750 584.791 C 604.088 584.969, 607.913 584.969, 610.250 584.791 C 614.500 584.466, 614.500 584.466, 611.750 583.073 C 609.081 581.720, 609 581.433, 609 573.339 C 609 565, 609 565, 613.427 565 C 616.959 565, 618.253 565.506, 619.821 567.500 C 620.903 568.875, 622.061 570, 622.394 570 C 622.727 570, 623 567.075, 623 563.500 C 623 556.654, 622.076 555.343, 620.182 559.500 C 619.187 561.684, 618.407 562, 614.021 562 C 609 562, 609 562, 609 554.500 C 609 547, 609 547, 616.016 547 C 623.032 547, 623.032 547, 624.701 550.500 C 627.006 555.333, 628 554.881, 628 549 C 628 544, 628 544, 612.750 544.040 C 598.657 544.077, 597.709 544.193, 600.250 545.572 M 635 550.059 C 635 556.820, 635.781 557.030, 638.499 551.002 C 640.342 546.914, 640.354 546.908, 645.423 547.204 C 650.500 547.500, 650.500 547.500, 650.774 564.214 C 651.048 580.928, 651.048 580.928, 647.274 582.920 C 643.500 584.912, 643.500 584.912, 653 584.924 C 661.566 584.935, 662.309 584.792, 660.559 583.468 C 659.491 582.661, 658.029 582, 657.309 582 C 656.280 582, 656 578.253, 656 564.500 C 656 547, 656 547, 661.013 547 C 665.964 547, 666.053 547.056, 668.212 551.500 C 669.415 553.975, 670.759 556, 671.199 556 C 671.640 556, 672 553.300, 672 550 C 672 544, 672 544, 653.500 544 C 635 544, 635 544, 635 550.059 M 680.441 545.532 C 681.509 546.339, 682.746 547, 683.191 547 C 683.636 547, 684 554.875, 684 564.500 C 684 574.125, 683.636 582, 683.191 582 C 682.746 582, 681.509 582.661, 680.441 583.468 C 678.682 584.799, 679.251 584.936, 686.500 584.937 C 694.500 584.937, 694.500 584.937, 691.750 582.885 C 689 580.833, 689 580.833, 689 563.917 C 689 554.612, 689.364 547, 689.809 547 C 690.254 547, 691.491 546.339, 692.559 545.532 C 694.318 544.201, 693.749 544.064, 686.500 544.064 C 679.251 544.064, 678.682 544.201, 680.441 545.532 M 704.441 545.532 C 705.509 546.339, 706.746 547, 707.191 547 C 707.636 547, 708 554.803, 708 564.339 C 708 581.679, 708 581.679, 705.250 583.089 C 702.662 584.417, 703.030 584.518, 711.500 584.809 C 723.490 585.221, 727.872 584.467, 733.226 581.072 C 739.223 577.268, 742.458 570.753, 742.482 562.427 C 742.505 554.687, 739.598 550.019, 732.554 546.483 C 728.059 544.227, 726.462 544.003, 715.054 544.032 C 703.797 544.060, 702.701 544.215, 704.441 545.532 M 753.250 545.572 C 756 547.064, 756 547.064, 756 564.532 C 756 574.139, 755.636 582, 755.191 582 C 754.746 582, 753.509 582.661, 752.441 583.468 C 750.709 584.778, 752.304 584.940, 767.250 584.968 C 784 585, 784 585, 784 579.500 C 784 576.475, 783.618 574, 783.152 574 C 782.685 574, 781.492 575.800, 780.500 578 C 778.696 582, 778.696 582, 770.348 582 C 762 582, 762 582, 762 573.500 C 762 565, 762 565, 766.977 565 C 771.182 565, 772.208 565.388, 773.592 567.500 C 776.179 571.449, 777 570.486, 777 563.500 C 777 556.576, 776.162 555.460, 774 559.500 C 772.830 561.687, 771.994 562, 767.331 562 C 762 562, 762 562, 762 554.500 C 762 547, 762 547, 769.516 547 C 777.032 547, 777.032 547, 778.701 550.500 C 781.006 555.333, 782 554.881, 782 549 C 782 544, 782 544, 766.250 544.040 C 751.713 544.077, 750.712 544.195, 753.250 545.572 M 713.442 548.290 C 713.170 549, 713.071 556.762, 713.224 565.540 C 713.500 581.500, 713.500 581.500, 719.634 581.410 C 727.484 581.295, 731.756 578.923, 734.750 573.015 C 739.294 564.051, 736.288 553.410, 728.038 549.250 C 723.014 546.716, 714.267 546.141, 713.442 548.290 M 566.720 558.617 C 565.224 562.430, 564 565.876, 564 566.275 C 564 566.674, 566.689 567, 569.975 567 C 576.754 567, 576.588 567.891, 571.825 557.092 C 569.440 551.684, 569.440 551.684, 566.720 558.617" stroke="none" fill="#fb4353" fill-rule="evenodd"/></svg>